<svg width="124" height="141" viewBox="0 0 124 141" fill="none" xmlns="http://www.w3.org/2000/svg">
<path d="M92 20.3571C92 21.8405 91.5601 23.2906 90.736 24.5239C89.9119 25.7573 88.7406 26.7186 87.3701 27.2862C85.9997 27.8539 84.4917 28.0024 83.0368 27.713C81.582 27.4236 80.2456 26.7093 79.1967 25.6604C78.1478 24.6116 77.4335 23.2752 77.1441 21.8203C76.8547 20.3655 77.0033 18.8575 77.5709 17.487C78.1386 16.1166 79.0999 14.9452 80.3332 14.1211C81.5666 13.297 83.0166 12.8571 84.5 12.8571C86.4891 12.8571 88.3968 13.6473 89.8033 15.0538C91.2098 16.4604 92 18.368 92 20.3571ZM47 20.3571C47 18.8738 46.5601 17.4237 45.736 16.1904C44.9119 14.957 43.7406 13.9957 42.3701 13.428C40.9997 12.8604 39.4917 12.7119 38.0368 13.0013C36.582 13.2906 35.2456 14.005 34.1967 15.0538C33.1478 16.1027 32.4335 17.4391 32.1441 18.894C31.8547 20.3488 32.0032 21.8568 32.5709 23.2273C33.1386 24.5977 34.0999 25.7691 35.3332 26.5932C36.5666 27.4173 38.0166 27.8571 39.5 27.8571C41.4891 27.8571 43.3968 27.067 44.8033 25.6604C46.2098 24.2539 47 22.3463 47 20.3571ZM52.3571 15C53.8405 15 55.2906 14.5601 56.5239 13.736C57.7573 12.9119 58.7186 11.7406 59.2862 10.3701C59.8539 8.99968 60.0024 7.49168 59.713 6.03683C59.4236 4.58197 58.7093 3.2456 57.6604 2.1967C56.6116 1.14781 55.2752 0.433503 53.8203 0.144114C52.3655 -0.145275 50.8575 0.00324962 49.487 0.570907C48.1166 1.13856 46.9452 2.09986 46.1211 3.33323C45.297 4.5666 44.8571 6.01664 44.8571 7.5C44.8571 9.48913 45.6473 11.3968 47.0538 12.8033C48.4604 14.2098 50.368 15 52.3571 15ZM71.6429 15C73.1262 15 74.5763 14.5601 75.8096 13.736C77.043 12.9119 78.0043 11.7406 78.572 10.3701C79.1396 8.99968 79.2881 7.49168 78.9987 6.03683C78.7094 4.58197 77.9951 3.2456 76.9462 2.1967C75.8973 1.14781 74.5609 0.433503 73.106 0.144114C71.6512 -0.145275 70.1432 0.00324962 68.7727 0.570907C67.4023 1.13856 66.2309 2.09986 65.4068 3.33323C64.5827 4.5666 64.1429 6.01664 64.1429 7.5C64.1429 9.48913 64.933 11.3968 66.3396 12.8033C67.7461 14.2098 69.6537 15 71.6429 15ZM77.8357 31.3018C76.7473 30.7013 75.7879 29.8921 75.0125 28.9205C74.2371 27.9488 73.661 26.8338 73.317 25.6393C72.6045 23.1891 71.116 21.0363 69.0753 19.5044C67.0345 17.9725 64.5517 17.1444 62 17.1444C59.4483 17.1444 56.9655 17.9725 54.9247 19.5044C52.884 21.0363 51.3955 23.1891 50.683 25.6393C49.9948 28.0429 48.3813 30.0755 46.1964 31.2911C44.1005 32.4252 42.4425 34.2257 41.4846 36.4078C40.5268 38.5899 40.3237 41.0291 40.9077 43.3395C41.4916 45.65 42.8291 47.6998 44.7087 49.1648C46.5883 50.6299 48.9026 51.4264 51.2857 51.4286C52.7138 51.4327 54.128 51.1475 55.4429 50.5902C59.635 48.8613 64.3409 48.8613 68.533 50.5902C71.0722 51.6945 73.9403 51.7729 76.536 50.8091C79.1317 49.8452 81.2535 47.9138 82.4565 45.4198C83.6595 42.9259 83.8502 40.0631 82.9888 37.4316C82.1274 34.8001 80.2806 32.6042 77.8357 31.3045V31.3018Z" fill="#10B981"/>
<path d="M13.875 87.2734L12.918 82.0391C12.293 82.013 11.6745 81.9935 11.0625 81.9805C10.4505 81.9674 9.83203 81.9609 9.20703 81.9609C8.54297 81.9609 7.8724 81.9674 7.19531 81.9805C6.51823 81.9935 5.84115 82.013 5.16406 82.0391C4.99479 82.9245 4.83203 83.7969 4.67578 84.6562C4.53255 85.5156 4.38932 86.375 4.24609 87.2344L0.59375 87.2734C1.16667 84.9688 1.70052 82.6445 2.19531 80.3008C2.70312 77.957 3.19141 75.6068 3.66016 73.25C4.12891 70.8932 4.59115 68.5365 5.04688 66.1797C5.5026 63.8229 5.96484 61.4857 6.43359 59.168L11.4727 59.0703C12.4102 63.7708 13.3932 68.4909 14.4219 73.2305C15.4635 77.9701 16.5898 82.651 17.8008 87.2734H13.875ZM9.08984 62.6445C8.46484 65.3919 7.8724 68.1523 7.3125 70.9258C6.7526 73.6862 6.20573 76.4596 5.67188 79.2461C6.24479 79.2721 6.8112 79.2786 7.37109 79.2656C7.93099 79.2526 8.50391 79.2461 9.08984 79.2461C9.64974 79.2461 10.1966 79.2526 10.7305 79.2656C11.2643 79.2786 11.8047 79.2721 12.3516 79.2461C11.8307 76.4466 11.3034 73.6667 10.7695 70.9062C10.2357 68.1458 9.67578 65.3919 9.08984 62.6445ZM37.8203 86.7266H36.1406L34.3828 65.3984L31.1406 84.793H27.4102L24.5781 65.8477L22.0977 86.5117L18.9336 86.3164L21.4531 58.6406H26.9414L29.5391 78.6016L32.3711 58.5625H37.8203V86.7266ZM53.4844 87.2734L52.5273 82.0391C51.9023 82.013 51.2839 81.9935 50.6719 81.9805C50.0599 81.9674 49.4414 81.9609 48.8164 81.9609C48.1523 81.9609 47.4818 81.9674 46.8047 81.9805C46.1276 81.9935 45.4505 82.013 44.7734 82.0391C44.6042 82.9245 44.4414 83.7969 44.2852 84.6562C44.1419 85.5156 43.9987 86.375 43.8555 87.2344L40.2031 87.2734C40.776 84.9688 41.3099 82.6445 41.8047 80.3008C42.3125 77.957 42.8008 75.6068 43.2695 73.25C43.7383 70.8932 44.2005 68.5365 44.6562 66.1797C45.112 63.8229 45.5742 61.4857 46.043 59.168L51.082 59.0703C52.0195 63.7708 53.0026 68.4909 54.0312 73.2305C55.0729 77.9701 56.1992 82.651 57.4102 87.2734H53.4844ZM48.6992 62.6445C48.0742 65.3919 47.4818 68.1523 46.9219 70.9258C46.362 73.6862 45.8151 76.4596 45.2812 79.2461C45.8542 79.2721 46.4206 79.2786 46.9805 79.2656C47.5404 79.2526 48.1133 79.2461 48.6992 79.2461C49.2591 79.2461 49.806 79.2526 50.3398 79.2656C50.8737 79.2786 51.4141 79.2721 51.9609 79.2461C51.4401 76.4466 50.9128 73.6667 50.3789 70.9062C49.8451 68.1458 49.2852 65.3919 48.6992 62.6445ZM73.8359 58.7578L73.7578 61.8047C71.6745 65.4245 69.7214 69.0768 67.8984 72.7617C66.0755 76.4336 64.2656 80.138 62.4688 83.875C63.3281 83.9141 64.168 83.9466 64.9883 83.9727C65.8086 83.9987 66.6289 84.0182 67.4492 84.0312C68.2695 84.0443 69.0898 84.0573 69.9102 84.0703C70.7435 84.0703 71.5964 84.0703 72.4688 84.0703L72.5078 87H58.1914L57.8594 84.5195C58.888 82.6445 59.9232 80.7695 60.9648 78.8945C62.0195 77.0195 63.0547 75.1445 64.0703 73.2695C65.099 71.3815 66.1081 69.4935 67.0977 67.6055C68.1003 65.7044 69.0638 63.7969 69.9883 61.8828C68.1393 61.9089 66.2904 61.9544 64.4414 62.0195C62.5924 62.0716 60.724 62.1693 58.8359 62.3125L58.7578 58.7578H73.8359ZM83.6211 86.6875H75.0664L75.1055 83.6406C75.5221 83.6667 75.9388 83.6862 76.3555 83.6992C76.7721 83.7122 77.1823 83.7188 77.5859 83.7188C77.651 81.1016 77.6966 78.4844 77.7227 75.8672C77.7617 73.25 77.7812 70.6133 77.7812 67.957C77.7812 66.9154 77.7812 65.8737 77.7812 64.832C77.7812 63.7904 77.7682 62.7422 77.7422 61.6875L75.2617 62.0391L75.0664 58.5234C75.8477 58.5495 76.6289 58.5625 77.4102 58.5625C78.1914 58.5625 78.9727 58.5625 79.7539 58.5625C80.5221 58.5625 81.2839 58.5625 82.0391 58.5625C82.8073 58.5625 83.5755 58.5495 84.3438 58.5234L84.3047 61.082C83.862 61.1081 83.4193 61.1406 82.9766 61.1797C82.5469 61.2057 82.1107 61.2383 81.668 61.2773C81.3815 65.0404 81.1211 68.7839 80.8867 72.5078C80.6654 76.2188 80.4701 79.9557 80.3008 83.7188C80.8737 83.7188 81.4271 83.7057 81.9609 83.6797C82.5078 83.6406 83.0612 83.5885 83.6211 83.5234V86.6875ZM102.938 59.1289C102.404 63.7773 101.987 68.4193 101.688 73.0547C101.401 77.6771 101.212 82.3385 101.121 87.0391H98.0156L90.6914 67.5664C90.3789 74.0247 90.2031 80.4896 90.1641 86.9609L87.0195 87C87.0456 85.6198 87.0586 84.2396 87.0586 82.8594C87.0586 81.4792 87.0586 80.0859 87.0586 78.6797C87.0586 72.2214 86.9609 65.7695 86.7656 59.3242L91.1211 59.4023L98.0938 80.3984C98.1458 79.3568 98.1914 78.2174 98.2305 76.9805C98.2695 75.7305 98.3021 74.4284 98.3281 73.0742C98.3672 71.7201 98.3932 70.3333 98.4062 68.9141C98.4323 67.4948 98.4453 66.0951 98.4453 64.7148C98.4453 63.7383 98.4388 62.7812 98.4258 61.8438C98.4128 60.8932 98.3932 59.9688 98.3672 59.0703L102.938 59.1289ZM119.344 68.4453C119.344 67.2344 119.24 66.2188 119.031 65.3984C118.823 64.5651 118.562 63.8815 118.25 63.3477C117.938 62.8138 117.599 62.4036 117.234 62.1172C116.87 61.8177 116.531 61.6029 116.219 61.4727C115.906 61.3294 115.639 61.2513 115.418 61.2383C115.21 61.2122 115.105 61.1992 115.105 61.1992C114.22 61.1992 113.419 61.4466 112.703 61.9414C111.987 62.4362 111.375 63.1849 110.867 64.1875C110.359 65.1771 109.962 66.4206 109.676 67.918C109.402 69.4154 109.266 71.1732 109.266 73.1914C109.266 75.2096 109.389 76.987 109.637 78.5234C109.897 80.0469 110.255 81.3229 110.711 82.3516C111.18 83.3802 111.746 84.1549 112.41 84.6758C113.074 85.1836 113.816 85.4375 114.637 85.4375C114.663 85.4375 114.786 85.4245 115.008 85.3984C115.229 85.3724 115.49 85.2878 115.789 85.1445C116.102 85.0013 116.434 84.7734 116.785 84.4609C117.15 84.1354 117.488 83.6797 117.801 83.0938C118.126 82.5078 118.4 81.7656 118.621 80.8672C118.855 79.9557 119.005 78.8424 119.07 77.5273C118.068 77.6055 117.085 77.7161 116.121 77.8594C115.158 78.0026 114.194 78.1849 113.23 78.4062V75.2422C115.027 75.3203 116.811 75.3594 118.582 75.3594C119.207 75.3594 119.826 75.3594 120.438 75.3594C121.062 75.3594 121.688 75.3464 122.312 75.3203C122.312 76.8828 122.202 78.263 121.98 79.4609C121.772 80.6458 121.492 81.681 121.141 82.5664C120.802 83.4388 120.405 84.181 119.949 84.793C119.507 85.3919 119.051 85.8867 118.582 86.2773C118.113 86.668 117.651 86.9674 117.195 87.1758C116.753 87.3841 116.349 87.5339 115.984 87.625C115.62 87.7292 115.32 87.7878 115.086 87.8008C114.865 87.8268 114.741 87.8398 114.715 87.8398C113.23 87.8398 111.909 87.5339 110.75 86.9219C109.591 86.2969 108.615 85.3789 107.82 84.168C107.026 82.944 106.421 81.4336 106.004 79.6367C105.6 77.8268 105.398 75.737 105.398 73.3672C105.398 70.8021 105.6 68.582 106.004 66.707C106.408 64.832 107.02 63.2826 107.84 62.0586C108.66 60.8216 109.695 59.9036 110.945 59.3047C112.208 58.7057 113.693 58.4062 115.398 58.4062C115.438 58.4062 115.646 58.4258 116.023 58.4648C116.401 58.4909 116.857 58.5951 117.391 58.7773C117.924 58.9596 118.491 59.2526 119.09 59.6562C119.702 60.0469 120.262 60.6068 120.77 61.3359C121.29 62.0651 121.72 62.9961 122.059 64.1289C122.41 65.2617 122.586 66.6484 122.586 68.2891L119.344 68.4453ZM30.3594 104.52C30.3464 104.91 30.3138 105.327 30.2617 105.77C30.2096 106.147 30.138 106.59 30.0469 107.098C29.9688 107.605 29.8385 108.133 29.6562 108.68L26.043 108.191C26.1862 107.632 26.2904 107.098 26.3555 106.59C26.4206 106.069 26.4531 105.581 26.4531 105.125C26.4531 104.188 26.3294 103.367 26.082 102.664C25.8346 101.961 25.5026 101.368 25.0859 100.887C24.6693 100.405 24.181 100.047 23.6211 99.8125C23.0742 99.5651 22.4948 99.4414 21.8828 99.4414C21.1536 99.4414 20.5091 99.6302 19.9492 100.008C19.4023 100.372 18.9401 100.861 18.5625 101.473C18.1849 102.072 17.8984 102.755 17.7031 103.523C17.5078 104.279 17.4102 105.053 17.4102 105.848C17.4102 106.629 17.5404 107.378 17.8008 108.094C18.0742 108.797 18.4388 109.467 18.8945 110.105C19.3633 110.73 19.9036 111.316 20.5156 111.863C21.1276 112.41 21.7852 112.911 22.4883 113.367C23.6992 114.148 24.7214 114.871 25.5547 115.535C26.401 116.199 27.0846 116.85 27.6055 117.488C28.1263 118.113 28.5039 118.738 28.7383 119.363C28.9727 119.988 29.0898 120.652 29.0898 121.355C29.0898 122.124 28.9596 122.872 28.6992 123.602C28.4518 124.331 28.0482 124.975 27.4883 125.535C26.9284 126.095 26.1992 126.544 25.3008 126.883C24.4154 127.221 23.3281 127.391 22.0391 127.391C20.7891 127.391 19.6562 127.195 18.6406 126.805C17.638 126.401 16.7786 125.848 16.0625 125.145C15.3594 124.441 14.8125 123.608 14.4219 122.645C14.0443 121.668 13.8555 120.6 13.8555 119.441L17.5273 119.598C17.5273 120.874 17.6771 121.889 17.9766 122.645C18.2891 123.4 18.6602 123.973 19.0898 124.363C19.5326 124.754 19.9883 125.008 20.457 125.125C20.9388 125.229 21.349 125.281 21.6875 125.281C22.0781 125.281 22.4948 125.223 22.9375 125.105C23.3932 124.975 23.8099 124.767 24.1875 124.48C24.5781 124.181 24.8971 123.797 25.1445 123.328C25.4049 122.846 25.5352 122.254 25.5352 121.551C25.5352 120.822 25.3594 120.158 25.0078 119.559C24.6693 118.947 24.2201 118.374 23.6602 117.84C23.1003 117.306 22.4622 116.792 21.7461 116.297C21.0299 115.802 20.2943 115.294 19.5391 114.773C18.7969 114.253 18.0677 113.706 17.3516 113.133C16.6354 112.56 15.9974 111.935 15.4375 111.258C14.8776 110.568 14.4219 109.806 14.0703 108.973C13.7318 108.139 13.5625 107.202 13.5625 106.16C13.5625 105.496 13.6146 104.812 13.7188 104.109C13.8359 103.406 14.0182 102.723 14.2656 102.059C14.526 101.382 14.8646 100.75 15.2812 100.164C15.7109 99.5651 16.2448 99.0443 16.8828 98.6016C17.5208 98.1589 18.2695 97.8073 19.1289 97.5469C20.0013 97.2865 21.0039 97.1562 22.1367 97.1562C23.3216 97.1823 24.3503 97.3385 25.2227 97.625C26.0951 97.9115 26.8372 98.276 27.4492 98.7188C28.0612 99.1484 28.556 99.6302 28.9336 100.164C29.3112 100.698 29.6042 101.238 29.8125 101.785C30.0208 102.319 30.1641 102.827 30.2422 103.309C30.3203 103.79 30.3594 104.194 30.3594 104.52ZM44.4023 127.273L43.4453 122.039C42.8203 122.013 42.2018 121.993 41.5898 121.98C40.9779 121.967 40.3594 121.961 39.7344 121.961C39.0703 121.961 38.3997 121.967 37.7227 121.98C37.0456 121.993 36.3685 122.013 35.6914 122.039C35.5221 122.924 35.3594 123.797 35.2031 124.656C35.0599 125.516 34.9167 126.375 34.7734 127.234L31.1211 127.273C31.694 124.969 32.2279 122.645 32.7227 120.301C33.2305 117.957 33.7188 115.607 34.1875 113.25C34.6562 110.893 35.1185 108.536 35.5742 106.18C36.0299 103.823 36.4922 101.486 36.9609 99.168L42 99.0703C42.9375 103.771 43.9206 108.491 44.9492 113.23C45.9909 117.97 47.1172 122.651 48.3281 127.273H44.4023ZM39.6172 102.645C38.9922 105.392 38.3997 108.152 37.8398 110.926C37.2799 113.686 36.7331 116.46 36.1992 119.246C36.7721 119.272 37.3385 119.279 37.8984 119.266C38.4583 119.253 39.0312 119.246 39.6172 119.246C40.1771 119.246 40.724 119.253 41.2578 119.266C41.7917 119.279 42.332 119.272 42.8789 119.246C42.3581 116.447 41.8307 113.667 41.2969 110.906C40.763 108.146 40.2031 105.392 39.6172 102.645ZM64.3438 99.2461V101.922H53.8359V113.797H62.3125V116.688H53.6602V126.883H50.5547V99.2461H64.3438ZM77.8789 127.273L76.9219 122.039C76.2969 122.013 75.6784 121.993 75.0664 121.98C74.4544 121.967 73.8359 121.961 73.2109 121.961C72.5469 121.961 71.8763 121.967 71.1992 121.98C70.5221 121.993 69.8451 122.013 69.168 122.039C68.9987 122.924 68.8359 123.797 68.6797 124.656C68.5365 125.516 68.3932 126.375 68.25 127.234L64.5977 127.273C65.1706 124.969 65.7044 122.645 66.1992 120.301C66.707 117.957 67.1953 115.607 67.6641 113.25C68.1328 110.893 68.5951 108.536 69.0508 106.18C69.5065 103.823 69.9688 101.486 70.4375 99.168L75.4766 99.0703C76.4141 103.771 77.3971 108.491 78.4258 113.23C79.4674 117.97 80.5938 122.651 81.8047 127.273H77.8789ZM73.0938 102.645C72.4688 105.392 71.8763 108.152 71.3164 110.926C70.7565 113.686 70.2096 116.46 69.6758 119.246C70.2487 119.272 70.8151 119.279 71.375 119.266C71.9349 119.253 72.5078 119.246 73.0938 119.246C73.6536 119.246 74.2005 119.253 74.7344 119.266C75.2682 119.279 75.8086 119.272 76.3555 119.246C75.8346 116.447 75.3073 113.667 74.7734 110.906C74.2396 108.146 73.6797 105.392 73.0938 102.645ZM93.1914 127.234L89.8711 117.762C89.2201 117.84 88.5885 117.879 87.9766 117.879C87.8203 117.879 87.6641 117.879 87.5078 117.879C87.3516 117.879 87.1888 117.866 87.0195 117.84C86.9414 119.389 86.8763 120.932 86.8242 122.469C86.7852 123.992 86.7461 125.529 86.707 127.078H83.7773C83.8555 124.37 83.9206 121.674 83.9727 118.992C84.0378 116.297 84.0703 113.582 84.0703 110.848C84.0703 108.868 84.0508 106.909 84.0117 104.969C83.9727 103.016 83.9206 101.049 83.8555 99.0703C84.4805 98.8229 85.138 98.6276 85.8281 98.4844C86.5182 98.3281 87.1823 98.2109 87.8203 98.1328C88.4714 98.0547 89.0703 98.0091 89.6172 97.9961C90.1641 97.9701 90.6068 97.957 90.9453 97.957C92.1823 97.957 93.3542 98.1263 94.4609 98.4648C95.5807 98.8034 96.5573 99.3633 97.3906 100.145C98.224 100.913 98.8815 101.922 99.3633 103.172C99.8581 104.409 100.105 105.926 100.105 107.723C100.04 108.921 99.7865 110.021 99.3438 111.023C98.901 112.013 98.3216 112.905 97.6055 113.699C96.8893 114.48 96.0755 115.158 95.1641 115.73C94.2656 116.303 93.3281 116.766 92.3516 117.117C93.0677 118.771 93.8424 120.405 94.6758 122.02C95.5091 123.634 96.401 125.255 97.3516 126.883L93.1914 127.234ZM88.0156 100.711C87.8203 103.211 87.651 105.698 87.5078 108.172C87.3646 110.646 87.2279 113.12 87.0977 115.594H87.1367C88.569 115.594 89.7799 115.398 90.7695 115.008C91.7721 114.617 92.599 114.129 93.25 113.543C93.9141 112.957 94.4284 112.326 94.793 111.648C95.1576 110.958 95.4245 110.314 95.5938 109.715C95.776 109.116 95.8867 108.615 95.9258 108.211C95.9648 107.807 95.9844 107.592 95.9844 107.566C95.9844 107.423 95.9714 107.15 95.9453 106.746C95.9193 106.342 95.8477 105.88 95.7305 105.359C95.6133 104.826 95.431 104.272 95.1836 103.699C94.9492 103.126 94.6172 102.605 94.1875 102.137C93.7578 101.655 93.2174 101.258 92.5664 100.945C91.9154 100.633 91.1211 100.477 90.1836 100.477C89.5326 100.477 88.8099 100.555 88.0156 100.711ZM110.203 126.688H101.648L101.688 123.641C102.104 123.667 102.521 123.686 102.938 123.699C103.354 123.712 103.764 123.719 104.168 123.719C104.233 121.102 104.279 118.484 104.305 115.867C104.344 113.25 104.363 110.613 104.363 107.957C104.363 106.915 104.363 105.874 104.363 104.832C104.363 103.79 104.35 102.742 104.324 101.688L101.844 102.039L101.648 98.5234C102.43 98.5495 103.211 98.5625 103.992 98.5625C104.773 98.5625 105.555 98.5625 106.336 98.5625C107.104 98.5625 107.866 98.5625 108.621 98.5625C109.389 98.5625 110.158 98.5495 110.926 98.5234L110.887 101.082C110.444 101.108 110.001 101.141 109.559 101.18C109.129 101.206 108.693 101.238 108.25 101.277C107.964 105.04 107.703 108.784 107.469 112.508C107.247 116.219 107.052 119.956 106.883 123.719C107.456 123.719 108.009 123.706 108.543 123.68C109.09 123.641 109.643 123.589 110.203 123.523V126.688Z" fill="#065F46"/>
</svg>
